Coordinates
version=1
nRows=18
nColumns=22
inDegrees=yes

Units are S.I. units (second, meters, Newtons, ...)
If the header above contains a line with 'inDegrees', this indicates whether rotational values are in degrees (yes) or radians (no).

endheader
time	pelvis_tilt	pelvis_list	pelvis_rotation	pelvis_tx	pelvis_ty	pelvis_tz	hip_flexion_r	hip_adduction_r	hip_rotation_r	knee_angle_r	ankle_angle_r	subtalar_angle_r	hip_flexion_l	hip_adduction_l	hip_rotation_l	knee_angle_l	ankle_angle_l	subtalar_angle_l	lumbar_extension	lumbar_bending	lumbar_rotation
      1.83000000	     -2.04695123	     -0.95932881	    142.69952820	     -0.37046784	      0.91836051	      0.68315121	      5.93064228	      9.72080633	     -0.71667172	    -21.63640577	      9.07543601	    -11.58841672	     17.90934972	     -9.53549867	     -2.19029134	    -58.30442910	      1.62180436	      9.14775654	     -7.59864426	     -3.34130279	      3.38668698
      1.84000000	     -2.13747343	     -0.98872668	    141.63331040	     -0.37523500	      0.91880046	      0.67698214	      5.03595147	      9.76720373	      0.35350775	    -21.18379793	      9.13710413	    -11.61694143	     18.57872685	     -9.79019204	     -2.32302029	    -56.41140761	      2.41219670	      8.18891496	     -7.64409425	     -3.52607067	      3.80194214
      1.85000000	     -2.20293693	     -1.01693578	    140.53170804	     -0.37991741	      0.91905201	      0.67081142	      4.19101029	      9.80952188	      1.46517353	    -20.78628169	      9.22356941	    -11.65869241	     19.17459805	    -10.04516407	     -2.51331679	    -54.31692034	      3.05341343	      7.27628284	     -7.67218738	     -3.69810684	      4.24007165
      1.86000000	     -2.24231410	     -1.04317256	    139.40804862	     -0.38455329	      0.91910897	      0.66469736	      3.40214075	      9.84199479	      2.57712222	    -20.45523963	      9.33720753	    -11.71827070	     19.69935858	    -10.28849472	     -2.74548281	    -52.02770667	      3.61155384	      6.38848350	     -7.68560868	     -3.84170968	      4.69190750
      1.87000000	     -2.23650231	     -1.07228787	    138.25254802	     -0.38910008	      0.91893838	      0.65860748	      2.68465986	      9.88534668	      3.73741974	    -20.18864445	      9.48547495	    -11.78982419	     20.17641905	    -10.53203100	     -3.01142498	    -49.56004539	      4.02690864	      5.62242255	     -7.66526956	     -3.95447994	      5.17198281
      1.88000000	     -2.19551101	     -1.10413143	    137.07604813	     -0.39358799	      0.91855211	      0.65254752	      2.02599231	      9.93125167	      4.92333852	    -19.98034629	      9.66536750	    -11.88189811	     20.59837313	    -10.76683955	     -3.30921697	    -46.92434822	      4.35508410	      4.94544878	     -7.62020451	     -4.03815053	      5.66183401
      1.89000000	     -2.05666922	     -1.17453608	    135.87930119	     -0.39799207	      0.91782619	      0.64651687	      1.51554943	     10.00481543	      6.12481102	    -19.85772244	      9.88393197	    -11.95488850	     21.05527153	    -11.00742883	     -3.60297375	    -44.15329823	      4.61636636	      4.56034762	     -7.46905030	     -4.07371622	      6.17777118
      1.90000000	     -1.98114608	     -1.19278815	    134.70831878	     -0.40245328	      0.91710206	      0.64052654	      0.90842565	     10.04891294	      7.32074377	    -19.72896910	     10.13585621	    -12.10659782	     21.33417438	    -11.17931518	     -3.87408611	    -41.21066494	      4.79549276	      4.09363336	     -7.42531393	     -4.09557563	      6.61350785
      1.91000000	     -1.77723238	     -1.27934904	    133.54604610	     -0.40687152	      0.91597821	      0.63460865	      0.51047834	     10.12763399	      8.49335150	    -19.71557885	     10.43691732	    -12.18447536	     21.71955851	    -11.34909175	     -4.09438131	    -38.18528433	      4.94638700	      3.98956485	     -7.23114243	     -4.05520544	      7.05398617
      1.92000000	     -1.58543352	     -1.35519156	    132.41851609	     -0.41136375	      0.91475441	      0.62871016	      0.10715973	     10.19042008	      9.62784457	    -19.73723234	     10.77884375	    -12.27410415	     22.01774799	    -11.46334895	     -4.28169245	    -35.04521240	      5.06260395	      4.03212366	     -7.06452565	     -3.99696889	      7.42881587
      1.93000000	     -1.38440287	     -1.43822858	    131.32667366	     -0.41593032	      0.91338478	      0.62285074	     -0.25704410	     10.24105549	     10.71045288	    -19.81843627	     11.15926053	    -12.35341419	     22.27346057	    -11.52711969	     -4.43684233	    -31.82826004	      5.14895890	      4.28040076	     -6.89562591	     -3.91709616	      7.75332672
      1.94000000	     -1.19959453	     -1.50323197	    130.27825105	     -0.42060497	      0.91194791	      0.61699879	     -0.64182027	     10.27468110	     11.72615257	    -19.91748373	     11.55311924	    -12.44229585	     22.44620355	    -11.53844425	     -4.56363246	    -28.54851118	      5.20068901	      4.89743323	     -6.76301643	     -3.82178995	      8.02629033
      1.95000000	     -0.97382359	     -1.63203691	    129.24166371	     -0.42528487	      0.91026948	      0.61120454	     -0.88257950	     10.29371114	     12.69814800	    -20.14244711	     11.99813742	    -12.47997562	     22.67189270	    -11.50780009	     -4.72292331	    -25.28046121	      5.22830334	      5.65138195	     -6.55915151	     -3.72556606	      8.27451369
      1.96000000	     -0.75308768	     -1.78753175	    128.21201037	     -0.43000941	      0.90846811	      0.60541450	     -1.07279779	     10.28223516	     13.61284844	    -20.43551958	     12.47692118	    -12.50255910	     22.87899808	    -11.42871395	     -4.93770493	    -22.04112306	      5.22818185	      6.60132076	     -6.34345051	     -3.64143424	      8.52531961
      1.97000000	     -0.54925228	     -1.96151371	    127.19277304	     -0.43479329	      0.90657512	      0.59960976	     -1.23721816	     10.23689996	     14.47348468	    -20.77683130	     12.97997572	    -12.51429391	     23.06490510	    -11.29703053	     -5.21185234	    -18.87725249	      5.20373927	      7.77537426	     -6.12741281	     -3.57523970	      8.76475622
      1.98000000	     -0.36847748	     -2.14749148	    126.18582587	     -0.43963729	      0.90460841	      0.59378943	     -1.38334145	     10.15697758	     15.27220920	    -21.16684181	     13.49769878	    -12.51144072	     23.23831341	    -11.11240813	     -5.52786388	    -15.85111935	      5.16487082	      9.10963432	     -5.92161844	     -3.52804254	      8.99028097
      1.99000000	     -0.21302282	     -2.32634563	    125.20639184	     -0.44457748	      0.90260288	      0.58793391	     -1.54030482	     10.05071166	     15.99547049	    -21.58166134	     14.01369909	    -12.49288645	     23.39983554	    -10.88073200	     -5.83248562	    -13.02555162	      5.10768884	     10.57596074	     -5.74183030	     -3.48787192	      9.18654692
      2.00000000	     -0.08695871	     -2.49233678	    124.26625872	     -0.44967065	      0.90058360	      0.58199577	     -1.73034946	      9.91160135	     16.61588964	    -21.99401301	     14.51508605	    -12.45602564	     23.55309583	    -10.60378228	     -6.08625833	    -10.46411930	      5.05686805	     12.08642457	     -5.58666034	     -3.45593967	      9.35093383
